# Blender v2.93.1 OBJ File: 'invader_01.blend'
# www.blender.org
o invader_01_smooth
v -0.236505 0.051973 0.138108
v -0.174005 -0.073027 0.138108
v -0.236505 -0.073027 0.138108
v -0.174005 0.051973 0.138108
v 0.200995 0.051973 0.138108
v 0.263495 -0.073027 0.138108
v 0.200995 -0.073027 0.138108
v 0.263495 0.051973 0.138108
v 0.138495 0.051973 0.075608
v 0.138495 0.051973 0.138108
v 0.200995 0.051973 0.075608
v -0.174005 0.051973 0.200608
v -0.236505 0.051973 0.200608
v 0.263495 0.051973 0.200608
v 0.200995 0.051973 0.200608
v -0.174005 -0.073027 0.200608
v 0.075995 0.051973 0.138108
v -0.049005 -0.073027 0.138108
v 0.075995 -0.073027 0.138108
v -0.049005 0.051973 0.138108
v 0.200995 -0.073027 0.075608
v -0.236505 -0.073027 0.200608
v 0.200995 -0.073027 0.200608
v 0.263495 -0.073027 0.200608
v 0.138495 -0.073027 0.075608
v 0.138495 -0.073027 0.138108
v -0.049005 0.051973 0.075608
v -0.049005 -0.073027 0.075608
v 0.075995 -0.073027 0.075608
v 0.075995 0.051973 0.075608
v -0.111505 -0.073027 -0.111892
v -0.111505 0.051973 -0.049392
v -0.111505 -0.073027 -0.049392
v -0.111505 0.051973 -0.111892
v -0.111505 0.051973 0.138108
v -0.111505 -0.073027 0.138108
v -0.111505 -0.073027 0.075608
v -0.111505 0.051973 0.075608
v -0.174005 0.051973 0.075608
v -0.174005 -0.073027 0.075608
v 0.075995 -0.073027 0.200608
v 0.075995 0.051973 0.200608
v 0.138495 -0.073027 0.200608
v -0.049005 0.051973 0.200608
v -0.111505 0.051973 0.200608
v -0.111505 -0.073027 0.200608
v -0.049005 -0.073027 0.200608
v 0.138495 0.051973 0.200608
v -0.174005 -0.073027 -0.111892
v -0.236505 -0.073027 0.013108
v -0.236505 -0.073027 -0.111892
v -0.111505 -0.073027 0.013108
v -0.111505 -0.073027 -0.174392
v -0.049005 -0.073027 -0.049392
v -0.049005 -0.073027 0.013108
v 0.075995 -0.073027 -0.299392
v -0.049005 -0.073027 -0.236892
v -0.049005 -0.073027 -0.299392
v -0.049005 -0.073027 -0.111892
v 0.075995 -0.073027 0.013108
v 0.075995 -0.073027 -0.236892
v 0.075995 -0.073027 -0.111892
v 0.075995 -0.073027 -0.049392
v 0.138495 -0.073027 -0.049392
v 0.138495 -0.073027 0.013108
v 0.138495 -0.073027 -0.236892
v 0.138495 -0.073027 -0.111892
v 0.138495 -0.073027 -0.174392
v 0.200995 -0.073027 -0.174392
v 0.200995 -0.073027 -0.111892
v 0.263495 -0.073027 0.013108
v 0.263495 -0.073027 -0.111892
v -0.111505 -0.073027 -0.236892
v -0.174005 -0.073027 -0.174392
v -0.049005 0.051973 -0.049392
v 0.138495 0.051973 0.013108
v 0.075995 0.051973 -0.049392
v 0.138495 0.051973 -0.049392
v -0.049005 0.051973 -0.111892
v -0.236505 0.051973 -0.111892
v -0.174005 0.051973 -0.111892
v -0.236505 0.051973 0.013108
v 0.138495 0.051973 -0.111892
v 0.075995 0.051973 -0.111892
v 0.075995 0.051973 0.013108
v -0.049005 0.051973 0.013108
v 0.075995 0.051973 -0.236892
v 0.138495 0.051973 -0.236892
v 0.138495 0.051973 -0.174392
v -0.111505 0.051973 0.013108
v -0.049005 0.051973 -0.236892
v -0.049005 0.051973 -0.299392
v 0.075995 0.051973 -0.299392
v -0.174005 0.051973 -0.174392
v -0.111505 0.051973 -0.174392
v -0.111505 0.051973 -0.236892
v 0.263495 0.051973 0.013108
v 0.200995 0.051973 -0.111892
v 0.263495 0.051973 -0.111892
v 0.200995 0.051973 -0.174392
vt 0.000000 0.625000
vt 0.125000 0.375000
vt 0.000000 0.375000
vt 0.125000 0.625000
vt 0.875000 0.625000
vt 1.000000 0.375000
vt 0.875000 0.375000
vt 1.000000 0.625000
vt 0.875000 0.125000
vt 0.750000 0.250000
vt 0.750000 0.125000
vt 0.875000 0.250000
vt 0.125000 0.000000
vt 0.000000 0.125000
vt 0.000000 0.000000
vt 0.125000 0.125000
vt 1.000000 0.000000
vt 0.875000 0.000000
vt 1.000000 0.125000
vt 0.000000 0.625000
vt 0.000000 0.375000
vt 0.625000 0.625000
vt 0.375000 0.375000
vt 0.625000 0.375000
vt 0.375000 0.625000
vt 0.250000 0.375000
vt 0.125000 0.625000
vt 0.125000 0.375000
vt 0.250000 0.625000
vt 0.125000 0.625000
vt 0.000000 0.375000
vt 0.125000 0.375000
vt 0.000000 0.625000
vt 1.000000 0.125000
vt 0.875000 0.000000
vt 0.875000 0.125000
vt 1.000000 0.000000
vt 0.750000 0.625000
vt 0.875000 0.375000
vt 0.750000 0.375000
vt 0.875000 0.625000
vt 0.750000 0.375000
vt 0.750000 0.625000
vt 0.250000 0.625000
vt 0.125000 0.375000
vt 0.125000 0.625000
vt 0.250000 0.375000
vt 0.875000 0.250000
vt 0.750000 0.125000
vt 0.750000 0.250000
vt 0.375000 0.625000
vt 0.625000 0.375000
vt 0.375000 0.375000
vt 0.625000 0.625000
vt 0.625000 0.375000
vt 0.500000 0.625000
vt 0.500000 0.375000
vt 0.625000 0.625000
vt 0.250000 0.625000
vt 0.250000 0.375000
vt 0.250000 0.375000
vt 0.125000 0.625000
vt 0.125000 0.375000
vt 0.250000 0.625000
vt 0.125000 0.625000
vt 0.125000 0.375000
vt 0.250000 0.625000
vt 0.250000 0.375000
vt 0.250000 0.250000
vt 0.125000 0.125000
vt 0.125000 0.250000
vt 0.250000 0.125000
vt 0.000000 0.000000
vt 0.000000 0.125000
vt 0.125000 0.000000
vt 0.250000 0.625000
vt 0.125000 0.375000
vt 0.125000 0.625000
vt 0.250000 0.375000
vt 0.000000 0.375000
vt 0.000000 0.625000
vt 0.250000 0.125000
vt 0.125000 0.250000
vt 0.250000 0.250000
vt 0.125000 0.625000
vt 0.125000 0.375000
vt 0.625000 0.125000
vt 0.375000 0.250000
vt 0.375000 0.125000
vt 0.625000 0.250000
vt 0.125000 0.375000
vt 0.000000 0.625000
vt 0.000000 0.375000
vt 0.125000 0.625000
vt 0.125000 0.625000
vt 0.000000 0.375000
vt 0.000000 0.625000
vt 0.125000 0.375000
vt 0.625000 0.000000
vt 0.625000 0.125000
vt 0.750000 0.000000
vt 0.375000 0.000000
vt 0.250000 0.000000
vt 0.375000 0.625000
vt 0.250000 0.375000
vt 0.375000 0.375000
vt 0.250000 0.625000
vt 0.000000 0.625000
vt 0.000000 0.375000
vt 0.000000 0.375000
vt 0.000000 0.625000
vt 0.375000 0.125000
vt 0.250000 0.000000
vt 0.375000 0.000000
vt 0.750000 0.000000
vt 0.625000 0.000000
vt 0.750000 0.625000
vt 0.625000 0.375000
vt 0.750000 0.375000
vt 0.625000 0.625000
vt 0.000000 0.625000
vt 0.000000 0.375000
vt 1.000000 0.625000
vt 0.875000 0.375000
vt 1.000000 0.375000
vt 0.875000 0.625000
vt 0.125000 0.625000
vt 0.000000 0.375000
vt 0.000000 0.625000
vt 0.250000 0.375000
vt 0.250000 0.750000
vt 0.250000 0.625000
vt 0.250000 0.500000
vt 0.375000 0.500000
vt 0.375000 0.250000
vt 0.375000 0.375000
vt 0.625000 1.000000
vt 0.375000 0.875000
vt 0.375000 1.000000
vt 0.375000 0.625000
vt 0.625000 0.375000
vt 0.625000 0.875000
vt 0.625000 0.625000
vt 0.625000 0.500000
vt 0.750000 0.500000
vt 0.625000 0.250000
vt 0.750000 0.375000
vt 0.750000 0.875000
vt 0.750000 0.625000
vt 0.750000 0.750000
vt 0.875000 0.750000
vt 0.875000 0.625000
vt 1.000000 0.375000
vt 1.000000 0.625000
vt 0.250000 0.875000
vt 0.125000 0.750000
vt 0.250000 0.375000
vt 0.250000 0.625000
vt 0.250000 0.625000
vt 0.375000 0.375000
vt 0.250000 0.375000
vt 0.375000 0.625000
vt 0.375000 0.375000
vt 0.375000 0.625000
vt 0.625000 0.625000
vt 0.750000 0.375000
vt 0.625000 0.375000
vt 0.750000 0.625000
vt 0.625000 0.625000
vt 0.500000 0.375000
vt 0.500000 0.625000
vt 0.625000 0.375000
vt 0.000000 0.625000
vt 0.125000 0.375000
vt 0.000000 0.375000
vt 0.125000 0.625000
vt 0.625000 0.625000
vt 0.375000 0.375000
vt 0.375000 0.625000
vt 0.625000 0.375000
vt 0.000000 0.000000
vt 1.000000 0.000000
vt 1.000000 1.000000
vt 0.000000 0.000000
vt 1.000000 0.000000
vt 1.000000 1.000000
vt 0.000000 0.000000
vt 1.000000 0.000000
vt 1.000000 1.000000
vt 0.229688 0.291667
vt 0.354688 0.541667
vt 0.229688 0.541667
vt 0.761979 0.698958
vt 0.636979 0.448958
vt 0.761979 0.448958
vt 0.604688 0.291667
vt 0.729687 0.541667
vt 0.604688 0.541667
vt 0.604688 0.541667
vt 0.354688 0.291667
vt 0.604688 0.291667
vt 0.354688 0.541667
vt 0.750000 0.625000
vt 0.625000 0.875000
vt 0.625000 0.625000
vt 0.750000 0.875000
vt 0.750000 0.750000
vt 0.250000 0.375000
vt 0.250000 0.500000
vt 0.375000 0.500000
vt 0.375000 0.375000
vt 0.625000 0.375000
vt 0.375000 0.625000
vt 0.375000 0.875000
vt 0.375000 1.000000
vt 0.625000 1.000000
vt 0.625000 0.500000
vt 0.531250 0.859375
vt 0.531250 0.359375
vt 0.531250 0.484375
vt 0.531250 0.734375
vt 0.000000 0.375000
vt 0.125000 0.750000
vt 0.250000 0.750000
vt 0.250000 0.625000
vt 0.250000 0.875000
vt 0.750000 0.500000
vt 0.750000 0.375000
vt 1.000000 0.375000
vt 0.875000 0.625000
vt 1.000000 0.625000
vt 0.875000 0.750000
vt 0.625000 0.375000
vt 0.500000 0.625000
vt 0.500000 0.375000
vt 1.000000 0.625000
vt 0.750000 0.625000
vt 1.000000 0.625000
vt 0.875000 0.375000
vt 0.875000 0.625000
vt 1.000000 0.375000
vt 0.625000 0.625000
vt 0.500000 0.375000
vt 0.500000 0.625000
vt 0.625000 0.375000
vt 0.591346 0.625000
vt 0.341346 0.375000
vt 0.591346 0.375000
vt 0.341346 0.625000
vt 0.625000 0.375000
vt 0.375000 0.625000
vt 0.375000 0.375000
vt 0.625000 0.625000
vt 1.000000 0.375000
vt 0.875000 0.375000
vt 0.875000 0.375000
vt 0.750000 0.625000
vt 0.750000 0.375000
vt 0.875000 0.625000
vt 0.625000 0.625000
vt 0.750000 0.375000
vt 0.625000 0.375000
vt 0.750000 0.625000
vt 0.125000 0.625000
vt 0.250000 0.375000
vt 0.125000 0.375000
vt 0.250000 0.625000
vt 0.375000 0.625000
vt 0.625000 0.375000
vt 0.375000 0.375000
vt 0.625000 0.625000
vt 0.750000 0.375000
vt 0.625000 0.625000
vt 0.625000 0.375000
vt 0.750000 0.625000
vt 0.875000 0.375000
vt 0.875000 0.625000
vt 0.750000 0.625000
vt 0.625000 0.375000
vt 0.625000 0.625000
vt 0.750000 0.375000
vt 0.375000 0.625000
vt 0.375000 0.375000
vt 0.375000 0.625000
vt 0.375000 0.375000
vt 1.000000 0.375000
vt 0.875000 0.625000
vt 0.875000 0.375000
vt 1.000000 0.625000
vt 0.250000 0.625000
vt 0.375000 0.375000
vt 0.250000 0.375000
vt 0.375000 0.625000
vt 0.875000 0.625000
vt 0.750000 0.375000
vt 0.750000 0.625000
vt 0.875000 0.375000
vt 0.375000 0.625000
vt 0.354688 0.541667
vt 0.229688 0.291667
vt 0.354688 0.291667
vt 0.229688 0.541667
vn 0.0000 0.0000 -1.0000
vn 0.0000 1.0000 0.0000
vn 1.0000 0.0000 0.0000
vn 0.0000 0.0000 1.0000
vn 0.0000 -1.0000 0.0000
vn -1.0000 0.0000 0.0000
s off
f 1/1/1 2/2/1 3/3/1
f 2/2/1 1/1/1 4/4/1
f 5/5/1 6/6/1 7/7/1
f 6/6/1 5/5/1 8/8/1
f 5/9/2 9/10/2 10/11/2
f 9/10/2 5/9/2 11/12/2
f 12/13/2 1/14/2 13/15/2
f 1/14/2 12/13/2 4/16/2
f 14/17/2 5/9/2 15/18/2
f 5/9/2 14/17/2 8/19/2
f 2/2/3 12/20/3 16/21/3
f 12/20/3 2/2/3 4/4/3
f 17/22/4 18/23/4 19/24/4
f 18/23/4 17/22/4 20/25/4
f 21/26/3 5/27/3 7/28/3
f 5/27/3 21/26/3 11/29/3
f 12/30/4 22/31/4 16/32/4
f 22/31/4 12/30/4 13/33/4
f 6/34/5 23/35/5 7/36/5
f 23/35/5 6/34/5 24/37/5
f 9/38/1 21/39/1 25/40/1
f 21/39/1 9/38/1 11/41/1
f 5/5/4 26/42/4 7/7/4
f 26/42/4 5/5/4 10/43/4
f 27/44/6 18/45/6 20/46/6
f 18/45/6 27/44/6 28/47/6
f 21/48/5 26/49/5 25/50/5
f 26/49/5 21/48/5 7/36/5
f 27/51/1 29/52/1 28/53/1
f 29/52/1 27/51/1 30/54/1
f 31/55/3 32/56/3 33/57/3
f 32/56/3 31/55/3 34/58/3
f 35/59/4 2/2/4 36/60/4
f 2/2/4 35/59/4 4/4/4
f 37/61/3 35/62/3 36/63/3
f 35/62/3 37/61/3 38/64/3
f 39/65/1 37/61/1 40/66/1
f 37/61/1 39/65/1 38/64/1
f 39/67/6 2/2/6 4/4/6
f 2/2/6 39/67/6 40/68/6
f 37/69/5 2/70/5 40/71/5
f 2/70/5 37/69/5 36/72/5
f 2/70/5 22/73/5 3/74/5
f 22/73/5 2/70/5 16/75/5
f 9/76/6 26/77/6 10/78/6
f 26/77/6 9/76/6 25/79/6
f 5/27/6 23/80/6 15/81/6
f 23/80/6 5/27/6 7/28/6
f 35/82/2 39/83/2 4/16/2
f 39/83/2 35/82/2 38/84/2
f 1/85/6 22/31/6 13/33/6
f 22/31/6 1/85/6 3/86/6
f 17/87/2 27/88/2 20/89/2
f 27/88/2 17/87/2 30/90/2
f 6/91/3 14/92/3 24/93/3
f 14/92/3 6/91/3 8/94/3
f 17/95/6 41/96/6 42/97/6
f 41/96/6 17/95/6 19/98/6
f 26/49/5 41/99/5 19/100/5
f 41/99/5 26/49/5 43/101/5
f 44/102/2 35/82/2 45/103/2
f 35/82/2 44/102/2 20/89/2
f 44/104/4 46/105/4 47/106/4
f 46/105/4 44/104/4 45/107/4
f 18/45/3 44/108/3 47/109/3
f 44/108/3 18/45/3 20/46/3
f 35/59/1 18/23/1 36/60/1
f 18/23/1 35/59/1 20/25/1
f 35/62/6 46/110/6 45/111/6
f 46/110/6 35/62/6 36/63/6
f 18/112/5 46/113/5 36/72/5
f 46/113/5 18/112/5 47/114/5
f 48/115/2 17/87/2 42/116/2
f 17/87/2 48/115/2 10/11/2
f 48/117/4 41/118/4 43/119/4
f 41/118/4 48/117/4 42/120/4
f 26/77/3 48/121/3 43/122/3
f 48/121/3 26/77/3 10/78/3
f 17/22/1 26/42/1 19/24/1
f 26/42/1 17/22/1 10/43/1
f 14/123/4 23/124/4 24/125/4
f 23/124/4 14/123/4 15/126/4
f 49/127/5 50/128/5 51/129/5
f 50/128/5 49/127/5 52/130/5
f 52/130/5 49/127/5 53/131/5
f 52/130/5 53/131/5 31/132/5
f 52/130/4 31/132/4 33/133/4
f 52/130/5 33/133/5 54/134/5
f 52/130/5 28/135/5 37/69/5
f 28/135/5 52/130/5 54/134/5
f 28/135/4 54/134/4 55/136/4
f 56/137/5 57/138/5 58/139/5
f 57/138/5 56/137/5 59/140/5
f 59/140/5 56/137/5 54/134/5
f 54/134/5 56/137/5 55/136/5
f 55/136/5 56/137/5 60/141/5
f 60/141/2 56/137/2 61/142/2
f 60/141/4 61/142/4 62/143/4
f 60/141/4 62/143/4 63/144/4
f 60/141/5 63/144/5 64/145/5
f 60/141/5 64/145/5 29/146/5
f 29/146/5 64/145/5 25/50/5
f 25/50/4 64/145/4 65/147/4
f 66/148/5 62/143/5 61/142/5
f 62/143/5 66/148/5 67/149/5
f 67/149/4 66/148/4 68/150/4
f 67/149/5 68/150/5 69/151/5
f 67/149/5 69/151/5 64/145/5
f 64/145/5 69/151/5 65/147/5
f 65/147/5 69/151/5 70/152/5
f 65/147/5 70/152/5 71/153/5
f 71/153/5 70/152/5 72/154/5
f 57/138/5 53/131/5 73/155/5
f 53/131/5 57/138/5 31/132/5
f 31/132/5 57/138/5 59/140/5
f 53/131/5 49/127/5 74/156/5
f 29/157/3 17/95/3 19/98/3
f 17/95/3 29/157/3 30/158/3
f 29/146/5 18/112/5 28/135/5
f 18/112/5 29/146/5 19/100/5
f 32/159/1 54/160/1 33/161/1
f 54/160/1 32/159/1 75/162/1
f 65/163/3 9/76/3 25/79/3
f 9/76/3 65/163/3 76/164/3
f 77/165/1 64/166/1 63/167/1
f 64/166/1 77/165/1 78/168/1
f 79/169/6 54/170/6 75/171/6
f 54/170/6 79/169/6 59/172/6
f 80/173/1 49/174/1 51/175/1
f 49/174/1 80/173/1 81/176/1
f 80/177/6 50/178/6 82/179/6
f 50/178/6 80/177/6 51/180/6
f 83/181/4 62/182/4 67/183/4
f 62/184/4 83/185/4 84/186/4
f 79/187/4 31/188/4 59/189/4
f 31/190/4 79/191/4 34/192/4
f 9/193/4 29/194/4 25/195/4
f 29/196/4 9/197/4 30/198/4
f 85/199/4 55/200/4 60/201/4
f 55/200/4 85/199/4 86/202/4
f 83/203/2 87/204/2 84/205/2
f 87/204/2 83/203/2 88/206/2
f 88/206/4 83/203/4 89/207/4
f 27/88/2 90/208/2 38/84/2
f 90/208/2 27/88/2 32/209/2
f 32/209/2 27/88/2 75/210/2
f 75/210/4 27/88/4 86/211/4
f 75/210/2 86/211/2 85/212/2
f 75/210/2 85/212/2 79/213/2
f 79/213/2 85/212/2 91/214/2
f 91/214/2 85/212/2 92/215/2
f 92/215/2 85/212/2 93/216/2
f 93/216/5 85/212/5 77/217/5
f 93/218/2 77/219/2 84/220/2
f 93/218/4 84/220/4 87/221/4
f 90/208/2 80/173/2 82/222/2
f 80/173/2 90/208/2 81/176/2
f 81/176/2 90/208/2 94/223/2
f 94/223/2 90/208/2 95/224/2
f 95/224/2 90/208/2 32/209/2
f 95/224/4 32/209/4 34/225/4
f 95/224/2 34/225/2 79/213/2
f 95/224/2 79/213/2 96/226/2
f 96/226/2 79/213/2 91/214/2
f 9/10/2 85/212/2 30/90/2
f 85/212/2 9/10/2 77/217/2
f 77/217/2 9/10/2 78/227/2
f 78/227/4 9/10/4 76/228/4
f 78/227/2 76/228/2 97/229/2
f 78/227/2 97/229/2 83/203/2
f 83/203/2 97/229/2 89/207/2
f 89/207/2 97/229/2 98/230/2
f 98/230/2 97/229/2 99/231/2
f 100/232/2 89/207/2 98/230/2
f 62/233/3 77/234/3 63/235/3
f 77/234/3 62/233/3 84/205/3
f 97/236/4 65/147/4 71/153/4
f 65/147/4 97/236/4 76/237/4
f 92/238/6 57/239/6 91/240/6
f 57/239/6 92/238/6 58/241/6
f 83/242/6 64/243/6 78/244/6
f 64/243/6 83/242/6 67/245/6
f 90/246/4 50/247/4 52/248/4
f 50/247/4 90/246/4 82/249/4
f 72/250/3 97/251/3 71/252/3
f 97/251/3 72/250/3 99/253/3
f 98/230/1 72/254/1 70/255/1
f 72/254/1 98/230/1 99/231/1
f 66/256/3 89/257/3 68/258/3
f 89/257/3 66/256/3 88/259/3
f 87/260/1 66/261/1 61/262/1
f 66/261/1 87/260/1 88/263/1
f 94/264/1 53/265/1 74/266/1
f 53/265/1 94/264/1 95/267/1
f 92/268/1 56/269/1 58/270/1
f 56/269/1 92/268/1 93/271/1
f 69/272/3 98/273/3 70/274/3
f 98/273/3 69/272/3 100/275/3
f 89/257/1 69/276/1 68/258/1
f 69/276/1 89/257/1 100/277/1
f 94/278/6 49/279/6 81/280/6
f 49/279/6 94/278/6 74/281/6
f 90/282/6 37/61/6 38/64/6
f 37/61/6 90/282/6 52/283/6
f 85/284/6 29/157/6 30/158/6
f 29/157/6 85/284/6 60/285/6
f 56/286/3 87/287/3 61/288/3
f 87/287/3 56/286/3 93/289/3
f 96/290/1 57/291/1 73/292/1
f 57/291/1 96/290/1 91/293/1
f 96/294/6 53/295/6 95/296/6
f 53/295/6 96/294/6 73/297/6
f 55/136/3 27/44/3 28/47/3
f 27/44/3 55/136/3 86/298/3
f 27/299/4 37/300/4 28/301/4
f 37/300/4 27/299/4 38/302/4
