# Blender v2.93.1 OBJ File: 'main_ship.blend'
# www.blender.org
o main_ship
v -0.031250 0.062500 -0.250000
v -0.031250 -0.062500 -0.187500
v -0.031250 0.062500 -0.187500
v -0.031250 -0.062500 -0.250000
v -0.093750 -0.062500 -0.062500
v -0.343750 -0.062500 0.000000
v -0.343750 -0.062500 -0.062500
v 0.031250 -0.062500 -0.250000
v -0.406250 -0.062500 0.250000
v -0.406250 -0.062500 -0.000000
v 0.406250 -0.062500 0.250000
v -0.093750 -0.062500 -0.187500
v 0.093750 -0.062500 -0.062500
v 0.031250 -0.062500 -0.187500
v 0.093750 -0.062500 -0.187500
v 0.343750 -0.062500 -0.000000
v 0.343750 -0.062500 -0.062500
v 0.406250 -0.062500 -0.000000
v 0.031250 0.062500 -0.250000
v 0.406250 0.062500 0.250000
v -0.406250 0.062500 -0.000000
v -0.406250 0.062500 0.250000
v -0.343750 0.062500 0.000000
v -0.343750 0.062500 -0.062500
v -0.093750 0.062500 -0.062500
v -0.093750 0.062500 -0.187500
v 0.093750 0.062500 -0.062500
v 0.031250 0.062500 -0.187500
v 0.343750 0.062500 -0.000000
v 0.406250 0.062500 -0.000000
v 0.343750 0.062500 -0.062500
v 0.093750 0.062500 -0.187500
vt 1.000000 0.625000
vt 0.875000 0.375000
vt 0.875000 0.625000
vt 1.000000 0.375000
vt 0.384615 0.538471
vt 0.076923 0.461548
vt 0.076923 0.538471
vt 0.538462 0.769240
vt 0.461538 0.692317
vt 0.461538 0.769240
vt 0.000000 0.153856
vt 0.000000 0.461548
vt 1.000000 0.153856
vt 0.384615 0.692317
vt 0.000000 0.000000
vt 1.000000 0.000000
vt 1.000000 1.000000
vt 0.615385 0.538471
vt 0.538462 0.692317
vt 0.615385 0.692317
vt 0.923077 0.461548
vt 0.923077 0.538471
vt 1.000000 0.461548
vt 0.461538 0.576923
vt 0.538462 0.423077
vt 0.461538 0.423077
vt 0.538462 0.576923
vt 1.000000 0.164694
vt 0.000000 0.472387
vt 0.000000 0.164694
vt 0.076923 0.472387
vt 0.076923 0.549310
vt 0.384615 0.549310
vt 0.384615 0.703156
vt 0.461538 0.703156
vt 0.000000 0.000000
vt 1.000000 0.000000
vt 1.000000 1.000000
vt 0.615385 0.549310
vt 0.461538 0.780079
vt 0.538462 0.703156
vt 0.923077 0.472387
vt 1.000000 0.472387
vt 0.923077 0.549310
vt 0.615385 0.703156
vt 0.538462 0.780079
vt 0.625000 0.375000
vt 0.500000 0.625000
vt 0.500000 0.375000
vt 0.625000 0.625000
vt 0.000000 0.576923
vt 0.076923 0.423077
vt 0.000000 0.423077
vt 0.076923 0.576923
vt 1.000000 0.576923
vt 0.000000 0.423077
vt 1.000000 0.423077
vt 0.000000 0.576923
vt 0.500000 0.625000
vt 0.000000 0.375000
vt 0.000000 0.625000
vt 0.500000 0.375000
vt 0.500000 0.375000
vt 0.000000 0.625000
vt 0.000000 0.375000
vt 0.500000 0.625000
vt 0.923077 0.576923
vt 1.000000 0.423077
vt 0.923077 0.423077
vt 1.000000 0.576923
vt 0.615385 0.576923
vt 0.923077 0.423077
vt 0.615385 0.423077
vt 0.923077 0.576923
vt 0.076923 0.576923
vt 0.384615 0.423077
vt 0.076923 0.423077
vt 0.384615 0.576923
vt 0.384615 0.576923
vt 0.461538 0.423077
vt 0.384615 0.423077
vt 0.461538 0.576923
vt 0.875000 0.625000
vt 0.625000 0.375000
vt 0.625000 0.625000
vt 0.875000 0.375000
vt 0.875000 0.375000
vt 0.625000 0.625000
vt 0.625000 0.375000
vt 0.875000 0.625000
vt 0.538462 0.576923
vt 0.615385 0.423077
vt 0.538462 0.423077
vt 0.615385 0.576923
vt 1.000000 0.375000
vt 0.875000 0.625000
vt 0.875000 0.375000
vt 1.000000 0.625000
vt 0.625000 0.625000
vt 0.500000 0.375000
vt 0.500000 0.625000
vt 0.625000 0.375000
vn -1.0000 0.0000 0.0000
vn 0.0000 -1.0000 0.0000
vn 0.0000 0.0000 1.0000
vn 0.0000 0.0000 -1.0000
vn 0.0000 1.0000 0.0000
vn 1.0000 0.0000 0.0000
s off
f 1/1/1 2/2/1 3/3/1
f 2/2/1 1/1/1 4/4/1
f 5/5/2 6/6/2 7/7/2
f 8/8/2 2/9/2 4/10/2
f 6/6/2 9/11/2 10/12/2
f 9/11/2 6/6/2 11/13/2
f 11/13/2 6/6/2 5/5/2
f 11/13/2 5/5/2 12/14/2
f 11/13/2 12/14/2 2/9/2
f 11/15/3 2/16/3 13/17/3
f 13/18/2 2/9/2 14/19/2
f 14/19/2 2/9/2 8/8/2
f 13/18/2 14/19/2 15/20/2
f 11/13/2 13/18/2 16/21/2
f 16/21/2 13/18/2 17/22/2
f 11/13/2 16/21/2 18/23/2
f 1/24/4 8/25/4 4/26/4
f 8/25/4 1/24/4 19/27/4
f 20/28/5 21/29/5 22/30/5
f 21/29/5 20/28/5 23/31/5
f 23/31/5 20/28/5 24/32/5
f 24/32/5 20/28/5 25/33/5
f 25/33/5 20/28/5 26/34/5
f 26/34/5 20/28/5 3/35/5
f 3/36/3 20/37/3 27/38/3
f 3/35/5 27/39/5 1/40/5
f 1/40/5 27/39/5 28/41/5
f 27/39/5 20/28/5 29/42/5
f 29/42/5 20/28/5 30/43/5
f 31/44/5 27/39/5 29/42/5
f 32/45/5 28/41/5 27/39/5
f 19/46/5 1/40/5 28/41/5
f 17/47/6 29/48/6 16/49/6
f 29/48/6 17/47/6 31/50/6
f 21/51/4 6/52/4 10/53/4
f 6/52/4 21/51/4 23/54/4
f 20/55/3 9/56/3 11/57/3
f 9/56/3 20/55/3 22/58/3
f 21/59/1 9/60/1 22/61/1
f 9/60/1 21/59/1 10/62/1
f 18/63/6 20/64/6 11/65/6
f 20/64/6 18/63/6 30/66/6
f 29/67/4 18/68/4 16/69/4
f 18/68/4 29/67/4 30/70/4
f 27/71/4 17/72/4 13/73/4
f 17/72/4 27/71/4 31/74/4
f 24/75/4 5/76/4 7/77/4
f 5/76/4 24/75/4 25/78/4
f 26/79/4 2/80/4 12/81/4
f 2/80/4 26/79/4 3/82/4
f 26/83/1 5/84/1 25/85/1
f 5/84/1 26/83/1 12/86/1
f 15/87/6 27/88/6 13/89/6
f 27/88/6 15/87/6 32/90/6
f 28/91/4 15/92/4 14/93/4
f 15/92/4 28/91/4 32/94/4
f 8/95/6 28/96/6 14/97/6
f 28/96/6 8/95/6 19/98/6
f 24/99/1 6/100/1 23/101/1
f 6/100/1 24/99/1 7/102/1
