# Blender v2.93.1 OBJ File: 'ufo.blend'
# www.blender.org
o ufo
v -0.375000 0.062500 0.093750
v -0.375000 -0.062500 0.156250
v -0.375000 0.062500 0.156250
v -0.375000 -0.062500 0.093750
v -0.250000 0.062500 0.218750
v -0.312500 0.062500 0.156250
v -0.312500 0.062500 0.218750
v -0.312500 0.062500 0.031250
v -0.250000 0.062500 0.031250
v -0.250000 0.062500 0.156250
v -0.187500 0.062500 0.156250
v -0.250000 0.062500 -0.031250
v 0.062500 0.062500 0.156250
v -0.062500 0.062500 0.093750
v -0.062500 0.062500 0.156250
v -0.062500 0.062500 0.031250
v 0.187500 0.062500 0.093750
v 0.062500 0.062500 0.031250
v 0.062500 0.062500 0.093750
v 0.125000 0.062500 0.031250
v 0.125000 0.062500 -0.031250
v 0.250000 0.062500 0.156250
v 0.187500 0.062500 0.156250
v 0.187500 0.062500 -0.156250
v 0.250000 0.062500 -0.031250
v 0.312500 0.062500 -0.156250
v 0.250000 0.062500 0.031250
v 0.312500 0.062500 -0.031250
v 0.312500 0.062500 -0.093750
v 0.312500 0.062500 0.218750
v 0.250000 0.062500 0.218750
v 0.312500 0.062500 0.031250
v 0.312500 0.062500 0.156250
v 0.375000 0.062500 0.156250
v 0.375000 0.062500 -0.093750
v 0.375000 0.062500 0.093750
v 0.375000 0.062500 -0.031250
v 0.500000 0.062500 0.093750
v 0.437500 0.062500 0.031250
v 0.500000 0.062500 0.031250
v 0.437500 0.062500 -0.031250
v -0.187500 0.062500 -0.156250
v 0.187500 0.062500 -0.218750
v -0.187500 0.062500 -0.218750
v -0.125000 0.062500 -0.031250
v -0.125000 0.062500 0.031250
v -0.062500 0.062500 -0.031250
v 0.062500 0.062500 -0.031250
v -0.375000 0.062500 -0.031250
v -0.375000 0.062500 -0.093750
v -0.312500 0.062500 -0.093750
v -0.312500 0.062500 -0.031250
v -0.312500 0.062500 -0.156250
v -0.187500 0.062500 0.093750
v -0.500000 0.062500 0.031250
v -0.500000 0.062500 0.093750
v -0.437500 0.062500 0.031250
v -0.437500 0.062500 -0.031250
v 0.062500 -0.062500 -0.031250
v 0.062500 -0.062500 0.031250
v 0.187500 -0.062500 -0.218750
v -0.187500 -0.062500 -0.156250
v -0.187500 -0.062500 -0.218750
v -0.125000 -0.062500 -0.031250
v -0.062500 -0.062500 -0.031250
v -0.062500 -0.062500 0.031250
v -0.062500 -0.062500 0.093750
v 0.062500 -0.062500 0.156250
v 0.125000 -0.062500 -0.031250
v 0.187500 -0.062500 0.093750
v 0.250000 -0.062500 0.156250
v 0.187500 -0.062500 0.156250
v 0.187500 -0.062500 -0.156250
v 0.250000 -0.062500 -0.031250
v 0.312500 -0.062500 -0.156250
v 0.312500 -0.062500 -0.031250
v 0.312500 -0.062500 -0.093750
v 0.375000 -0.062500 -0.093750
v 0.312500 -0.062500 0.031250
v 0.375000 -0.062500 0.156250
v 0.375000 -0.062500 0.093750
v 0.375000 -0.062500 -0.031250
v 0.437500 -0.062500 -0.031250
v 0.437500 -0.062500 0.031250
v 0.500000 -0.062500 0.093750
v 0.500000 -0.062500 0.031250
v 0.312500 -0.062500 0.218750
v 0.250000 -0.062500 0.218750
v 0.250000 -0.062500 0.031250
v 0.312500 -0.062500 0.156250
v 0.062500 -0.062500 0.093750
v 0.125000 -0.062500 0.031250
v -0.375000 -0.062500 -0.031250
v -0.437500 -0.062500 0.031250
v -0.437500 -0.062500 -0.031250
v -0.312500 -0.062500 -0.093750
v -0.375000 -0.062500 -0.093750
v -0.312500 -0.062500 0.156250
v -0.062500 -0.062500 0.156250
v -0.312500 -0.062500 -0.156250
v -0.312500 -0.062500 -0.031250
v -0.250000 -0.062500 -0.031250
v -0.250000 -0.062500 0.031250
v -0.187500 -0.062500 0.156250
v -0.187500 -0.062500 0.093750
v -0.125000 -0.062500 0.031250
v -0.250000 -0.062500 0.218750
v -0.312500 -0.062500 0.218750
v -0.312500 -0.062500 0.031250
v -0.250000 -0.062500 0.156250
v -0.500000 -0.062500 0.093750
v -0.500000 -0.062500 0.031250
vt 0.423077 0.576923
vt 0.346154 0.423077
vt 0.346154 0.576923
vt 0.423077 0.423077
vt 0.250000 0.304422
vt 0.187500 0.366922
vt 0.187500 0.304422
vt 0.187500 0.491922
vt 0.250000 0.491922
vt 0.000000 0.000000
vt 1.000000 0.000000
vt 1.000000 1.000000
vt 0.250000 0.366922
vt 0.312500 0.366922
vt 0.250000 0.554422
vt 0.562500 0.366922
vt 0.437500 0.429422
vt 0.437500 0.366922
vt 0.437500 0.491922
vt 0.687500 0.429422
vt 0.562500 0.491922
vt 0.562500 0.429422
vt 0.625000 0.491922
vt 0.625000 0.554422
vt 0.750000 0.366922
vt 0.687500 0.366922
vt 0.687500 0.679422
vt 0.750000 0.554422
vt 0.812500 0.679422
vt 0.000000 0.000000
vt 1.000000 0.000000
vt 1.000000 1.000000
vt 0.812500 0.554422
vt 0.000000 0.000000
vt 1.000000 0.000000
vt 1.000000 1.000000
vt 0.812500 0.304422
vt 0.750000 0.304422
vt 0.750000 0.491922
vt 0.812500 0.491922
vt 0.000000 0.000000
vt 1.000000 0.000000
vt 1.000000 1.000000
vt 0.812500 0.366922
vt 0.875000 0.366922
vt 0.812500 0.616922
vt 0.875000 0.616922
vt 0.000000 0.000000
vt 1.000000 0.000000
vt 1.000000 1.000000
vt 1.000000 0.000000
vt 1.000000 1.000000
vt 1.000000 0.429422
vt 0.875000 0.554422
vt 0.875000 0.429422
vt 0.000000 0.000000
vt 1.000000 0.000000
vt 1.000000 1.000000
vt 0.937500 0.491922
vt 1.000000 0.491922
vt 0.937500 0.554422
vt 0.312500 0.679422
vt 0.687500 0.741922
vt 0.312500 0.741922
vt 0.375000 0.554422
vt 0.375000 0.491922
vt 0.437500 0.554422
vt 0.562500 0.554422
vt 0.000000 0.000000
vt 1.000000 0.000000
vt 1.000000 1.000000
vt 1.000000 0.000000
vt 1.000000 1.000000
vt 0.000000 0.000000
vt 1.000000 0.000000
vt 1.000000 1.000000
vt 0.125000 0.429422
vt 0.125000 0.366922
vt 0.125000 0.554422
vt 0.125000 0.616922
vt 0.187500 0.616922
vt 0.000000 0.000000
vt 1.000000 0.000000
vt 1.000000 1.000000
vt 1.000000 0.000000
vt 1.000000 1.000000
vt 0.187500 0.554422
vt 0.187500 0.679422
vt 0.000000 0.000000
vt 1.000000 0.000000
vt 1.000000 1.000000
vt 0.312500 0.429422
vt 0.000000 0.491922
vt 0.000000 0.429422
vt 0.062500 0.491922
vt 0.062500 0.554422
vt 0.576923 0.423077
vt 0.500000 0.576923
vt 0.500000 0.423077
vt 0.576923 0.576923
vt 0.687500 0.733750
vt 0.312500 0.671250
vt 0.312500 0.733750
vt 0.375000 0.546250
vt 0.437500 0.546250
vt 0.437500 0.483750
vt 0.437500 0.421250
vt 0.562500 0.546250
vt 0.562500 0.358750
vt 0.625000 0.546250
vt 0.687500 0.421250
vt 0.750000 0.358750
vt 0.687500 0.358750
vt 0.687500 0.671250
vt 0.000000 0.000000
vt 1.000000 0.000000
vt 1.000000 1.000000
vt 0.750000 0.546250
vt 0.812500 0.671250
vt 0.812500 0.546250
vt 0.000000 0.000000
vt 1.000000 0.000000
vt 1.000000 1.000000
vt 0.812500 0.608750
vt 0.875000 0.608750
vt 0.812500 0.483750
vt 0.875000 0.358750
vt 0.000000 0.000000
vt 1.000000 0.000000
vt 1.000000 1.000000
vt 0.000000 0.000000
vt 1.000000 1.000000
vt 0.875000 0.421250
vt 0.875000 0.546250
vt 0.937500 0.546250
vt 0.937500 0.483750
vt 1.000000 0.421250
vt 1.000000 0.483750
vt 0.812500 0.296250
vt 0.750000 0.296250
vt 0.750000 0.483750
vt 0.000000 0.000000
vt 1.000000 0.000000
vt 1.000000 1.000000
vt 0.000000 0.000000
vt 1.000000 0.000000
vt 1.000000 1.000000
vt 0.812500 0.358750
vt 0.000000 0.000000
vt 1.000000 0.000000
vt 1.000000 1.000000
vt 0.000000 0.000000
vt 1.000000 0.000000
vt 1.000000 1.000000
vt 0.562500 0.421250
vt 0.562500 0.483750
vt 0.625000 0.483750
vt 0.125000 0.546250
vt 0.062500 0.483750
vt 0.062500 0.546250
vt 0.187500 0.608750
vt 0.125000 0.608750
vt 0.125000 0.421250
vt 0.187500 0.358750
vt 0.437500 0.358750
vt 0.187500 0.671250
vt 0.187500 0.546250
vt 0.250000 0.546250
vt 0.250000 0.483750
vt 0.312500 0.358750
vt 0.000000 0.000000
vt 1.000000 0.000000
vt 1.000000 1.000000
vt 0.312500 0.421250
vt 0.375000 0.483750
vt 0.250000 0.296250
vt 0.187500 0.296250
vt 0.187500 0.483750
vt 0.000000 0.000000
vt 1.000000 0.000000
vt 1.000000 1.000000
vt 1.000000 0.000000
vt 1.000000 1.000000
vt 0.000000 0.000000
vt 1.000000 0.000000
vt 1.000000 1.000000
vt 0.250000 0.358750
vt 0.125000 0.358750
vt 0.000000 0.421250
vt 0.000000 0.483750
vt 0.187500 0.562500
vt 0.250000 0.437500
vt 0.187500 0.437500
vt 0.250000 0.562500
vt 0.562500 0.562500
vt 0.625000 0.437500
vt 0.562500 0.437500
vt 0.625000 0.562500
vt 0.687500 0.562500
vt 0.562500 0.437500
vt 0.687500 0.437500
vt 0.562500 0.562500
vt 1.000000 0.562500
vt 0.875000 0.437500
vt 1.000000 0.437500
vt 0.875000 0.562500
vt 0.937500 0.562500
vt 1.000000 0.437500
vt 0.937500 0.437500
vt 1.000000 0.562500
vt 0.500000 0.423077
vt 0.423077 0.576923
vt 0.423077 0.423077
vt 0.500000 0.576923
vt 0.576923 0.576923
vt 0.500000 0.423077
vt 0.500000 0.576923
vt 0.576923 0.423077
vt 0.375000 0.562500
vt 0.437500 0.437500
vt 0.375000 0.437500
vt 0.437500 0.562500
vt 0.437500 0.562500
vt 0.312500 0.437500
vt 0.437500 0.437500
vt 0.312500 0.562500
vt 0.125000 0.562500
vt 0.000000 0.437500
vt 0.125000 0.437500
vt 0.000000 0.562500
vt 0.500000 0.576923
vt 0.423077 0.423077
vt 0.423077 0.576923
vt 0.500000 0.423077
vt 0.000000 0.562500
vt 0.062500 0.437500
vt 0.000000 0.437500
vt 0.062500 0.562500
vt 0.576923 0.423077
vt 0.500000 0.576923
vt 0.500000 0.423077
vt 0.576923 0.576923
vt 0.576923 0.423077
vt 0.500000 0.576923
vt 0.500000 0.423077
vt 0.576923 0.576923
vt 0.576923 0.576923
vt 0.500000 0.423077
vt 0.500000 0.576923
vt 0.576923 0.423077
vt 0.062500 0.562500
vt 0.125000 0.437500
vt 0.062500 0.437500
vt 0.125000 0.562500
vt 0.653846 0.576923
vt 0.576923 0.423077
vt 0.576923 0.576923
vt 0.653846 0.423077
vt 0.125000 0.562500
vt 0.187500 0.437500
vt 0.125000 0.437500
vt 0.187500 0.562500
vt 0.250000 0.562500
vt 0.187500 0.437500
vt 0.250000 0.437500
vt 0.187500 0.562500
vt 0.437500 0.562500
vt 0.375000 0.437500
vt 0.437500 0.437500
vt 0.375000 0.562500
vt 0.576923 0.576923
vt 0.500000 0.423077
vt 0.500000 0.576923
vt 0.576923 0.423077
vt 0.576923 0.576923
vt 0.500000 0.423077
vt 0.500000 0.576923
vt 0.576923 0.423077
vt 0.875000 0.562500
vt 0.937500 0.437500
vt 0.875000 0.437500
vt 0.937500 0.562500
vt 0.576923 0.423077
vt 0.500000 0.576923
vt 0.500000 0.423077
vt 0.576923 0.576923
vt 0.812500 0.562500
vt 0.875000 0.437500
vt 0.812500 0.437500
vt 0.875000 0.562500
vt 0.653846 0.423077
vt 0.576923 0.576923
vt 0.576923 0.423077
vt 0.653846 0.576923
vt 0.625000 0.562500
vt 0.562500 0.437500
vt 0.625000 0.437500
vt 0.562500 0.562500
vt 0.812500 0.562500
vt 0.750000 0.437500
vt 0.812500 0.437500
vt 0.750000 0.562500
vt 0.687500 0.562500
vt 0.812500 0.437500
vt 0.687500 0.437500
vt 0.812500 0.562500
vt 0.730769 0.423077
vt 0.653846 0.576923
vt 0.653846 0.423077
vt 0.730769 0.576923
vt 0.730769 0.576923
vt 0.653846 0.423077
vt 0.653846 0.576923
vt 0.730769 0.423077
vt 0.187500 0.562500
vt 0.312500 0.437500
vt 0.187500 0.437500
vt 0.312500 0.562500
vt 0.807692 0.423077
vt 0.730769 0.576923
vt 0.730769 0.423077
vt 0.807692 0.576923
vt 0.312500 0.562500
vt 0.687500 0.437500
vt 0.312500 0.437500
vt 0.687500 0.562500
vt 0.576923 0.576923
vt 0.500000 0.423077
vt 0.500000 0.576923
vt 0.576923 0.423077
vt 0.807692 0.576923
vt 0.730769 0.423077
vt 0.730769 0.576923
vt 0.807692 0.423077
vt 0.576923 0.423077
vt 0.500000 0.576923
vt 0.500000 0.423077
vt 0.576923 0.576923
vt 0.187500 0.562500
vt 0.125000 0.437500
vt 0.187500 0.437500
vt 0.125000 0.562500
vt 0.423077 0.423077
vt 0.346154 0.576923
vt 0.346154 0.423077
vt 0.423077 0.576923
vt 0.312500 0.562500
vt 0.250000 0.437500
vt 0.312500 0.437500
vt 0.250000 0.562500
vt 0.423077 0.423077
vt 0.346154 0.576923
vt 0.346154 0.423077
vt 0.423077 0.576923
vt 0.875000 0.562500
vt 0.812500 0.437500
vt 0.875000 0.437500
vt 0.812500 0.562500
vt 0.423077 0.576923
vt 0.346154 0.423077
vt 0.346154 0.576923
vt 0.423077 0.423077
vt 0.750000 0.562500
vt 0.687500 0.437500
vt 0.750000 0.437500
vt 0.687500 0.562500
vt 0.346154 0.576923
vt 0.269231 0.423077
vt 0.269231 0.576923
vt 0.346154 0.423077
vt 0.250000 0.562500
vt 0.187500 0.437500
vt 0.250000 0.437500
vt 0.187500 0.562500
vt 0.346154 0.423077
vt 0.269231 0.576923
vt 0.269231 0.423077
vt 0.346154 0.576923
vt 0.346154 0.576923
vt 0.269231 0.423077
vt 0.269231 0.576923
vt 0.346154 0.423077
vt 0.812500 0.562500
vt 0.750000 0.437500
vt 0.812500 0.437500
vt 0.750000 0.562500
vt 0.346154 0.423077
vt 0.269231 0.576923
vt 0.269231 0.423077
vt 0.346154 0.576923
vt 0.423077 0.423077
vt 0.346154 0.576923
vt 0.346154 0.423077
vt 0.423077 0.576923
vt 0.562500 0.562500
vt 0.437500 0.437500
vt 0.562500 0.437500
vt 0.437500 0.562500
vt 0.423077 0.576923
vt 0.346154 0.423077
vt 0.346154 0.576923
vt 0.423077 0.423077
vt 0.750000 0.562500
vt 0.812500 0.437500
vt 0.750000 0.437500
vt 0.812500 0.562500
vn -1.0000 0.0000 0.0000
vn 0.0000 1.0000 0.0000
vn 0.0000 0.0000 1.0000
vn 1.0000 0.0000 0.0000
vn 0.0000 -1.0000 0.0000
vn 0.0000 0.0000 -1.0000
s off
f 1/1/1 2/2/1 3/3/1
f 2/2/1 1/1/1 4/4/1
f 5/5/2 6/6/2 7/7/2
f 6/6/2 5/5/2 8/8/2
f 8/8/2 5/5/2 9/9/2
f 9/10/3 5/11/3 10/12/3
f 9/9/2 10/13/2 11/14/2
f 9/9/2 11/14/2 12/15/2
f 13/16/2 14/17/2 15/18/2
f 14/17/2 13/16/2 16/19/2
f 17/20/2 18/21/2 19/22/2
f 18/21/2 17/20/2 20/23/2
f 20/23/2 17/20/2 21/24/2
f 22/25/2 17/20/2 23/26/2
f 17/20/2 22/25/2 24/27/2
f 24/27/2 22/25/2 25/28/2
f 24/27/2 25/28/2 26/29/2
f 25/30/3 22/31/3 27/32/3
f 26/29/2 25/28/2 28/33/2
f 26/34/3 28/35/3 29/36/3
f 30/37/2 22/25/2 31/38/2
f 22/25/2 30/37/2 27/39/2
f 27/39/2 30/37/2 32/40/2
f 32/41/3 30/42/3 33/43/3
f 32/40/2 33/44/2 34/45/2
f 32/40/2 34/45/2 28/33/2
f 28/33/2 34/45/2 29/46/2
f 29/46/2 34/45/2 35/47/2
f 35/48/3 34/49/3 36/50/3
f 35/48/3 36/51/3 37/52/3
f 38/53/2 37/54/2 36/55/2
f 37/56/3 38/57/3 39/58/3
f 39/59/2 38/53/2 40/60/2
f 41/61/2 37/54/2 39/59/2
f 42/62/2 43/63/2 44/64/2
f 43/63/2 42/62/2 45/65/2
f 45/65/2 42/62/2 46/66/2
f 43/63/2 45/65/2 47/67/2
f 43/63/2 47/67/2 16/19/2
f 43/63/2 16/19/2 48/68/2
f 48/68/2 16/19/2 13/16/2
f 48/69/3 13/70/3 19/71/3
f 48/69/3 19/72/3 18/73/3
f 43/63/2 48/68/2 21/24/2
f 43/63/2 21/24/2 17/20/2
f 43/74/3 17/75/3 24/76/3
f 6/6/2 1/77/2 3/78/2
f 1/77/2 6/6/2 49/79/2
f 49/79/2 6/6/2 50/80/2
f 50/80/2 6/6/2 51/81/2
f 51/82/3 6/83/3 8/84/3
f 51/82/3 8/85/3 52/86/3
f 51/81/2 52/87/2 12/15/2
f 51/81/2 12/15/2 53/88/2
f 53/88/2 12/15/2 42/62/2
f 42/62/2 12/15/2 11/14/2
f 42/89/3 11/90/3 54/91/3
f 42/62/2 54/92/2 46/66/2
f 46/66/2 54/92/2 14/17/2
f 46/66/2 14/17/2 16/19/2
f 1/77/2 55/93/2 56/94/2
f 55/93/2 1/77/2 57/95/2
f 57/95/2 1/77/2 58/96/2
f 58/96/2 1/77/2 49/79/2
f 59/97/4 18/98/4 60/99/4
f 18/98/4 59/97/4 48/100/4
f 61/101/5 62/102/5 63/103/5
f 62/102/5 61/101/5 64/104/5
f 64/104/5 61/101/5 65/105/5
f 65/105/5 61/101/5 66/106/5
f 66/106/5 61/101/5 67/107/5
f 67/107/5 61/101/5 59/108/5
f 67/107/5 59/108/5 68/109/5
f 59/108/5 61/101/5 69/110/5
f 69/110/5 61/101/5 70/111/5
f 70/111/5 71/112/5 72/113/5
f 71/112/5 70/111/5 73/114/5
f 73/115/3 70/116/3 61/117/3
f 71/112/5 73/114/5 74/118/5
f 74/118/5 73/114/5 75/119/5
f 74/118/5 75/119/5 76/120/5
f 76/121/3 75/122/3 77/123/3
f 76/120/5 77/124/5 78/125/5
f 76/120/5 78/125/5 79/126/5
f 79/126/5 78/125/5 80/127/5
f 80/128/3 78/129/3 81/130/3
f 81/131/3 78/129/3 82/132/3
f 81/133/5 82/134/5 83/135/5
f 81/133/5 83/135/5 84/136/5
f 81/133/5 84/136/5 85/137/5
f 85/137/5 84/136/5 86/138/5
f 71/112/5 87/139/5 88/140/5
f 87/139/5 71/112/5 89/141/5
f 89/142/3 71/143/3 74/144/3
f 87/139/5 89/141/5 79/126/5
f 87/145/3 79/146/3 90/147/3
f 90/148/5 79/126/5 80/127/5
f 59/149/3 91/150/3 68/151/3
f 91/152/3 59/153/3 60/154/3
f 91/155/5 60/156/5 92/157/5
f 91/155/5 92/157/5 70/111/5
f 70/111/5 92/157/5 69/110/5
f 93/158/5 94/159/5 95/160/5
f 96/161/5 93/158/5 97/162/5
f 93/158/5 96/161/5 4/163/5
f 4/163/5 96/161/5 98/164/5
f 68/109/5 99/165/5 67/107/5
f 62/102/5 96/161/5 100/166/5
f 96/161/5 62/102/5 101/167/5
f 101/167/5 62/102/5 102/168/5
f 102/168/5 62/102/5 103/169/5
f 103/169/5 62/102/5 104/170/5
f 104/171/3 62/172/3 105/173/3
f 105/174/5 62/102/5 106/175/5
f 105/174/5 106/175/5 67/107/5
f 106/175/5 62/102/5 64/104/5
f 67/107/5 106/175/5 66/106/5
f 98/164/5 107/176/5 108/177/5
f 107/176/5 98/164/5 109/178/5
f 109/179/3 98/180/3 96/181/3
f 109/179/3 96/182/3 101/183/3
f 107/176/5 109/178/5 103/169/5
f 107/184/3 103/185/3 110/186/3
f 110/187/5 103/169/5 104/170/5
f 98/164/5 2/188/5 4/163/5
f 94/159/5 111/189/5 112/190/5
f 111/189/5 94/159/5 4/163/5
f 4/163/5 94/159/5 93/158/5
f 8/191/6 103/192/6 109/193/6
f 103/192/6 8/191/6 9/194/6
f 18/195/6 92/196/6 60/197/6
f 92/196/6 18/195/6 20/198/6
f 17/199/3 91/200/3 70/201/3
f 91/200/3 17/199/3 19/202/3
f 38/203/3 81/204/3 85/205/3
f 81/204/3 38/203/3 36/206/3
f 39/207/6 86/208/6 84/209/6
f 86/208/6 39/207/6 40/210/6
f 86/211/4 38/212/4 85/213/4
f 38/212/4 86/211/4 40/214/4
f 47/215/1 66/216/1 16/217/1
f 66/216/1 47/215/1 65/218/1
f 46/219/6 66/220/6 106/221/6
f 66/220/6 46/219/6 16/222/6
f 14/223/3 105/224/3 67/225/3
f 105/224/3 14/223/3 54/226/3
f 1/227/3 111/228/3 4/229/3
f 111/228/3 1/227/3 56/230/3
f 55/231/1 111/232/1 56/233/1
f 111/232/1 55/231/1 112/234/1
f 55/235/6 94/236/6 112/237/6
f 94/236/6 55/235/6 57/238/6
f 64/239/4 46/240/4 106/241/4
f 46/240/4 64/239/4 45/242/4
f 101/243/4 8/244/4 109/245/4
f 8/244/4 101/243/4 52/246/4
f 58/247/1 94/248/1 57/249/1
f 94/248/1 58/247/1 95/250/1
f 58/251/6 93/252/6 95/253/6
f 93/252/6 58/251/6 49/254/6
f 50/255/1 93/256/1 49/257/1
f 93/256/1 50/255/1 97/258/1
f 50/259/6 96/260/6 97/261/6
f 96/260/6 50/259/6 51/262/6
f 12/263/3 101/264/3 102/265/3
f 101/264/3 12/263/3 52/266/3
f 47/267/3 64/268/3 65/269/3
f 64/268/3 47/267/3 45/270/3
f 21/271/1 92/272/1 20/273/1
f 92/272/1 21/271/1 69/274/1
f 28/275/1 79/276/1 32/277/1
f 79/276/1 28/275/1 76/278/1
f 37/279/6 83/280/6 82/281/6
f 83/280/6 37/279/6 41/282/6
f 83/283/4 39/284/4 84/285/4
f 39/284/4 83/283/4 41/286/4
f 29/287/6 78/288/6 77/289/6
f 78/288/6 29/287/6 35/290/6
f 78/291/4 37/292/4 82/293/4
f 37/292/4 78/291/4 35/294/4
f 21/295/3 59/296/3 69/297/3
f 59/296/3 21/295/3 48/298/3
f 28/299/3 74/300/3 76/301/3
f 74/300/3 28/299/3 25/302/3
f 24/303/6 75/304/6 73/305/6
f 75/304/6 24/303/6 26/306/6
f 75/307/4 29/308/4 77/309/4
f 29/308/4 75/307/4 26/310/4
f 53/311/1 96/312/1 51/313/1
f 96/312/1 53/311/1 100/314/1
f 53/315/6 62/316/6 100/317/6
f 62/316/6 53/315/6 42/318/6
f 61/319/4 24/320/4 73/321/4
f 24/320/4 61/319/4 43/322/4
f 44/323/6 61/324/6 63/325/6
f 61/324/6 44/323/6 43/326/6
f 12/327/1 103/328/1 9/329/1
f 103/328/1 12/327/1 102/330/1
f 44/331/1 62/332/1 42/333/1
f 62/332/1 44/331/1 63/334/1
f 74/335/4 27/336/4 89/337/4
f 27/336/4 74/335/4 25/338/4
f 6/339/3 2/340/3 98/341/3
f 2/340/3 6/339/3 3/342/3
f 105/343/4 11/344/4 104/345/4
f 11/344/4 105/343/4 54/346/4
f 11/347/3 110/348/3 104/349/3
f 110/348/3 11/347/3 10/350/3
f 81/351/4 34/352/4 80/353/4
f 34/352/4 81/351/4 36/354/4
f 34/355/3 90/356/3 80/357/3
f 90/356/3 34/355/3 33/358/3
f 17/359/1 72/360/1 23/361/1
f 72/360/1 17/359/1 70/362/1
f 22/363/3 72/364/3 71/365/3
f 72/364/3 22/363/3 23/366/3
f 6/367/1 108/368/1 7/369/1
f 108/368/1 6/367/1 98/370/1
f 5/371/3 108/372/3 107/373/3
f 108/372/3 5/371/3 7/374/3
f 110/375/4 5/376/4 107/377/4
f 5/376/4 110/375/4 10/378/4
f 22/379/1 88/380/1 31/381/1
f 88/380/1 22/379/1 71/382/1
f 30/383/3 88/384/3 87/385/3
f 88/384/3 30/383/3 31/386/3
f 90/387/4 30/388/4 87/389/4
f 30/388/4 90/387/4 33/390/4
f 91/391/4 13/392/4 68/393/4
f 13/392/4 91/391/4 19/394/4
f 13/395/3 99/396/3 68/397/3
f 99/396/3 13/395/3 15/398/3
f 14/399/1 99/400/1 15/401/1
f 99/400/1 14/399/1 67/402/1
f 27/403/6 79/404/6 89/405/6
f 79/404/6 27/403/6 32/406/6
